<svg xmlns="http://www.w3.org/2000/svg" width="1em" height="1em" viewBox="0 0 128 128"><path fill="currentColor" fill-rule="evenodd" d="M82.803 34.23c-2.604-8.108-6.781-15.284-12.667-21.459c-1.488-1.562-3.142-2.993-4.18-4.936c-.656-1.23-1.281-2.477-1.92-3.715l-.406-1.021l-.113.402c-.053 2.02-1.197 3.389-2.621 4.668c-1.604 1.438-3.096 3-4.636 4.509l-4.736 6.229l-3.829 7.042l-2.561 6.915l-.077.107c-1.409 4.629-2.104 9.389-2.445 14.195c-.129 1.807.019 3.639.12 5.455c.145 2.596.596 5.147 1.272 7.66c2.457 9.126 7.444 16.695 14.263 23.127c1.266 1.195 2.635 2.282 3.956 3.418l.585 2.008l.544 3.116l.26 3.253c-.003.66-.03 1.323.009 1.981c.011.169.231.325.355.487l1.104.388l1.149.447l-.197-2.891l-.009-2.848l.397-4.338l.288-.944l.825-1.461c1.018-.818 2.109-1.562 3.036-2.473c1.677-1.647 3.351-3.317 4.852-5.122a38.5 38.5 0 0 0 4.969-7.636c.899-1.833 1.747-3.703 2.448-5.618c.618-1.688 1.001-3.463 1.488-5.2l.128-.375c1.005-4.688 1.174-9.424.805-14.19c-.297-3.841-1.2-7.548-2.456-11.18m-19.9 50.275c.154-.771.345-1.538.484-2.312c-.139.774-.329 1.541-.484 2.312m3.417.532l-.646-1.415zl.949.811zm40.154 17.927c-.826-1.583-2.038-2.785-3.64-3.574c-1.342-.66-2.785-.95-4.269-.992c-1.112-.032-2.228.025-3.342.039c-.989.012-1.979.029-2.968.02c-1.163-.012-2.326-.047-3.489-.08c-.193-.006-.33.033-.42.229c-.141.305-.308.599-.481.933l.194.062c.577.102 1.157.189 1.731.304c.738.147 1.07.571 1.104 1.193q.073 1.33.067 2.662c-.015 3.514-.04 7.028-.066 10.541c-.002.232-.006.474-.069.692c-.073.252-.152.578-.34.702a2.9 2.9 0 0 1-1.115.425c-.561.092-.655.117-.83.669l-.076.276c-.084.301-.039.36.275.363c1.802.02 3.603.059 5.404.053c1.643-.006 3.286.094 4.923-.215c1.547-.291 2.991-.801 4.309-1.664c1.71-1.121 2.94-2.619 3.589-4.574c.524-1.579.641-3.19.463-4.841a8.9 8.9 0 0 0-.954-3.223m-3.157 9.661c-.964 1.794-2.402 2.992-4.457 3.308c-1.287.197-2.576.14-3.803-.347c-.777-.308-1.066-.979-1.09-1.772a82 82 0 0 1-.033-2.332q-.006-4.101 0-8.201c.002-.861.017-1.724.031-2.586c.01-.606.137-.809.728-.858c2.596-.218 5.073.062 7.13 1.889c1.272 1.13 1.996 2.571 2.297 4.226c.125.69.163 1.396.241 2.096c-.063 1.598-.279 3.153-1.044 4.577m21.789-2.961c-.512-1.246-1.482-2.027-2.701-2.527c-.416-.171-.845-.312-1.294-.478l.157-.1c.485-.311 1.025-.562 1.443-.945c1.016-.931 1.438-2.102 1.24-3.493c-.188-1.323-.848-2.294-2.027-2.924c-1.07-.57-2.224-.778-3.418-.777c-2.066.002-4.133.033-6.199.037c-.712.001-1.424-.052-2.136-.062c-.138-.002-.343.033-.402.125c-.163.25-.271.538-.387.816c-.067.162-.001.251.184.275c.497.068.993.153 1.491.227c.688.103 1.021.461 1.063 1.154l.009.411c.001 2.155.008 4.31-.001 6.465a927 927 0 0 1-.061 6.456c-.003.271-.04.543-.079.812c-.059.406-.276.686-.692.774l-1.177.232c-.139.028-.34.024-.397.11c-.216.323-.39.676-.366 1.102l.121.033l3.953.097l.793-.003c1.368-.016 2.738.011 4.104-.059c1.479-.074 2.868-.513 4.152-1.268c1.367-.805 2.419-1.866 2.793-3.462c.24-1.019.241-2.044-.166-3.028m-10.043-9.181c.006-.433.197-.621.627-.632c1.059-.029 2.111-.023 3.133.342c1.322.472 2.135 1.612 2.12 3.005c-.007.535.001 1.065-.196 1.579c-.389 1.012-1.135 1.546-2.193 1.65c-.552.056-1.109.062-1.601.088l-1.642-.072c-.218-.008-.313-.104-.312-.328zm6.806 13.494c-.529 1.151-1.493 1.756-2.7 1.966a6.8 6.8 0 0 1-2.892-.127c-.706-.181-.994-.748-1.135-1.377c-.095-.421-.079-.922-.087-1.36c-.013-.676-.003-2.079-.003-2.079h-.014c0-1 .003-1.866-.003-2.825c-.001-.207.034-.31.287-.302c.898.027 1.799.042 2.697.077c.803.031 1.555.269 2.262.65c1.076.58 1.724 1.468 1.902 2.688c.136.925.078 1.835-.314 2.689m-98.587 1.078l.019-5.437c.003-.818-.101-1.62-.369-2.396c-.739-2.137-2.777-3.11-4.899-2.343c-.965.349-1.83.878-2.656 1.478c-.481.35-.481.35-.829-.149c-.985-1.412-2.392-1.895-4.03-1.374c-1.059.336-1.985.911-2.862 1.579c-.082.062-.247.131-.296.094c-.082-.061-.139-.206-.137-.315l.06-.966c.005-.203-.034-.407-.054-.62c-.396.137-.712.274-1.043.354c-1.023.25-2.053.48-3.082.715c-.249.057-.512.132-.536.418c-.025.281.246.328.456.412q.663.269 1.318.559c.367.162.504.455.502.849c-.007 1.685.004 3.368-.006 5.053c-.004.685-.036 1.369-.067 2.054c-.028.607-.235.861-.823 1.014c-.312.082-.629.137-.943.211c-.069.016-.187.06-.188.094c-.013.297-.029.601.021.89c.01.052.324.052.498.072l.117-.007q1.818-.029 3.637-.05c.643-.007 1.285-.001 1.983-.001l.075-.97c-.4-.073-.757-.128-1.109-.205c-.549-.12-.783-.411-.797-.965l-.01-.793c-.006-2.057-.014-4.113-.014-6.17c0-.299.124-.536.387-.715c.557-.376 1.145-.675 1.796-.842c1.372-.351 2.562.137 3.09 1.304c.167.368.298.775.335 1.175c.194 2.062.11 4.126-.007 6.188c-.025.445-.234.669-.673.778l-1.032.218c-.083.021-.204-.035-.21.034c-.023.285-.01.722-.01.722h.246l3.142.103c.861-.002 1.723.102 2.583.124c.154.003.291.026.3-.152a9 9 0 0 0-.011-.829l-.164-.029l-.885-.199c-.597-.141-.803-.368-.805-.972c-.007-1.489.013-2.977 0-4.465a45 45 0 0 0-.095-2.551c-.015-.226.02-.374.2-.501a5.3 5.3 0 0 1 1.732-.835c1.935-.51 3.519.551 3.619 2.546c.098 1.924.057 3.855.042 5.783c-.005.671-.227.874-.888 1.054l-.228.059c-.677.162-.671.162-.631.881c.013.225.075.283.315.277c1.379-.031 2.758-.039 4.137-.051c.564-.005 1.128 0 1.742 0l.125-.936c-.539-.143-1.036-.249-1.516-.406c-.424-.144-.574-.4-.572-.848m47.489-8.241c.568-.527.572-1.223.413-1.996c-.45.471-.954.688-1.529.729c-.771.055-1.528-.012-2.246-.319c-1.942-.834-3.854-.775-5.76.14c-1.603.768-2.589 1.965-2.688 3.78c-.063 1.163.155 2.264.931 3.189c.465.554 1.062.913 1.735 1.161c.29.107.312.245.069.43a7 7 0 0 1-.557.38a73 73 0 0 1-1.226.754c-.241.146-.323.332-.244.617c.231.838.826 1.322 1.57 1.675l.271.189l-.237.237c-.729.591-1.487 1.149-2.185 1.776c-.586.527-.775 1.233-.598 2.012c.357 1.555 1.388 2.517 2.851 2.959c2.557.774 4.958.33 7.147-1.185c1.298-.899 2.229-2.069 2.512-3.679c.317-1.809-.688-3.379-2.487-3.703c-1.19-.216-2.408-.278-3.612-.416c-.562-.064-1.132-.102-1.679-.231c-.465-.11-.696-.489-.653-.859c.043-.364.43-.703.873-.738c.892-.072 1.766-.211 2.588-.587c2.178-.996 3.189-2.74 2.936-5.088c-.033-.316-.105-.628-.17-.996c.697.117 1.41.294 1.975-.231m-6.609 11.017c.886.026 1.894.081 2.868.366c.857.25 1.562.688 1.77 1.645c.251 1.156-.305 2.306-1.424 2.924c-1.048.578-2.186.626-3.34.507c-.988-.102-1.877-.444-2.589-1.174c-.938-.961-.943-2.291-.004-3.249c.839-.856 1.288-1.033 2.719-1.019m2.217-6.962c-.516 1.651-2.018 1.879-3.195 1.351c-1.003-.449-1.44-1.333-1.669-2.342c-.089-.388-.11-.791-.162-1.188c.021-.569.115-1.115.36-1.627c.751-1.577 2.596-1.483 3.617-.769c.438.306.743.722.934 1.215a5 5 0 0 1 .115 3.36m-9.37 5.263a8 8 0 0 1-1.057-.236c-.608-.186-.682-.3-.689-.943c-.018-1.792-.03-3.584-.05-5.375c-.01-.806-.106-1.601-.353-2.371c-.65-2.03-2.641-3.12-4.633-2.521c-1.104.333-2.052.952-2.935 1.679l-.322.247l.001-.331c.021-.381.062-.762.059-1.143c-.002-.199-.078-.399-.115-.574c-.753.227-1.428.455-2.117.629c-.691.174-1.396.292-2.095.434c-.347.07-.602.28-.596.519c.009.337.288.402.532.503c.442.181.883.364 1.32.558c.312.139.439.397.436.732c-.022 2.329-.036 4.659-.07 6.989c-.01.736-.196.93-.92 1.092l-.316.063c-.67.115-.689.142-.643.849l.004.117c-.008.272.111.36.391.357q2.67-.033 5.341-.024c.763.003.845-.057.829-.841l-.036-.337c-.436-.073-.853-.126-1.261-.216c-.427-.095-.58-.27-.62-.704c-.037-.397-.049-.8-.053-1.2q-.03-2.747-.045-5.492c-.002-.461.083-.889.507-1.186a4.14 4.14 0 0 1 2.125-.762c1.588-.109 2.795.832 2.881 2.415c.106 1.953.074 3.913.099 5.87c.002.146-.024.293-.044.438c-.038.286-.178.501-.468.575c-.283.074-.57.14-.859.184c-.431.064-.44.061-.473.496l.011.293c.051.506.052.491.564.486q2.583-.022 5.164-.021c.72.002.771-.032.777-.774l-.002-.176c.011-.19-.074-.267-.269-.298m24.052-11.323c-1.805-.441-3.517-.113-5.143.728c-1.58.817-2.636 2.08-3.038 3.824c-.406 1.763-.212 3.483.567 5.12c.507 1.063 1.287 1.885 2.349 2.419c2.486 1.252 5.527.684 7.477-.991c1.539-1.321 2.104-3.08 2.138-5.257c-.021-.218-.042-.638-.1-1.054c-.327-2.37-1.968-4.231-4.25-4.789m1.367 9.155c-.479 1.886-2.11 2.724-3.95 2.076c-.939-.33-1.641-.961-2.113-1.814c-1.086-1.96-1.295-4.044-.677-6.182c.412-1.424 1.584-2.203 2.978-2.105c1.246.087 2.204.685 2.907 1.699c.741 1.07 1.027 2.287 1.103 3.565c.013.205.002.41.002.616l.088.01c-.11.713-.162 1.44-.338 2.135m-46.764-9.186c-1.899-.434-3.678-.005-5.326.96c-1.425.834-2.346 2.08-2.699 3.708c-.331 1.521-.196 3.016.343 4.473c.328.888.825 1.669 1.554 2.278c1.535 1.281 3.329 1.605 5.238 1.248c1.616-.303 3.036-1.021 4.068-2.364c.966-1.256 1.334-2.698 1.372-4.261c-.057-.495-.071-.999-.176-1.482c-.522-2.411-1.932-4.003-4.374-4.56m1.549 9.18c-.463 1.876-2.12 2.735-3.947 2.087c-1.173-.417-1.937-1.276-2.42-2.377c-.774-1.769-.932-3.61-.431-5.476c.384-1.427 1.541-2.478 3.312-2.226c1.087.154 1.935.709 2.567 1.592c.854 1.191 1.135 2.555 1.174 3.988v.293l.072.011c-.105.704-.157 1.42-.327 2.108" clip-rule="evenodd"/></svg>