<svg xmlns="http://www.w3.org/2000/svg" width="1em" height="1em" viewBox="0 0 48 48"><defs><path id="SVGJ5kDdewH" fill="#fff" d="M24 19c10.217 0 18.5-3.582 18.5-8S34.217 3 24 3S5.5 6.582 5.5 11s8.283 8 18.5 8"/></defs><g fill="none" stroke-width="3"><path fill="#8fbffa" d="M5.5 11c0-4.418 8.283-8 18.5-8s18.5 3.582 18.5 8c0 0 .5 5 .5 13s-.5 13-.5 13c0 4.418-8.283 8-18.5 8S5.5 41.418 5.5 37c0 0-.5-5-.5-13s.5-13 .5-13"/><use href="#SVGJ5kDdewH"/><use href="#SVGJ5kDdewH"/><path stroke="#2859c5" stroke-linecap="round" stroke-linejoin="round" d="M42.5 11c0 4.418-8.283 8-18.5 8S5.5 15.418 5.5 11M43 24.205C43 28.51 34.493 32 24 32S5 28.51 5 24.205M11.5 24a.5.5 0 0 0 0-1m0 1a.5.5 0 0 1 0-1"/><path stroke="#2859c5" stroke-linecap="round" stroke-linejoin="round" d="M5.5 11c0-4.418 8.283-8 18.5-8s18.5 3.582 18.5 8c0 0 .5 5 .5 13s-.5 13-.5 13c0 4.418-8.283 8-18.5 8S5.5 41.418 5.5 37c0 0-.5-5-.5-13s.5-13 .5-13"/><path stroke="#2859c5" stroke-linecap="round" stroke-linejoin="round" d="M11.5 37a.5.5 0 0 0 0-1m0 1a.5.5 0 0 1 0-1M18 25.75a.5.5 0 0 0 0-1m0 1a.5.5 0 0 1 0-1m0 14a.5.5 0 0 0 0-1m0 1a.5.5 0 0 1 0-1"/></g></svg>