<svg xmlns="http://www.w3.org/2000/svg" width="1em" height="1em" viewBox="0 0 24 24"><g fill="none" stroke="currentColor" stroke-linecap="round" stroke-linejoin="round" stroke-width="1.5"><path d="M22.438 9.507c-.402-.313-2.45 0-3.008-.48c-.392-.362-.45-.98-.568-1.88a5.4 5.4 0 0 0-.627-2.362a7.66 7.66 0 0 0-5.368-3.81H7.969A6.984 6.984 0 0 0 1.043 7.94v8.13a6.975 6.975 0 0 0 6.955 6.955h7.994a6.994 6.994 0 0 0 6.965-6.955v-5.632c-.098-.676-.157-.657-.52-.931"/><path d="M6.333 7.832A1.606 1.606 0 0 0 7.94 9.429h4.085a1.607 1.607 0 1 0 0-3.204H7.94c-.888 0-1.607.72-1.607 1.607m0 8.248c0 .887.72 1.607 1.607 1.607h8.16a1.607 1.607 0 0 0 0-3.204H7.94c-.884 0-1.602.713-1.607 1.597"/></g></svg>