<svg xmlns="http://www.w3.org/2000/svg" width="1em" height="1em" viewBox="0 0 48 48"><path fill="none" stroke="currentColor" stroke-linecap="round" stroke-linejoin="round" d="M17.517 14.46a4.903 4.903 0 1 1 5.555.048M8.14 25.647a4.903 4.903 0 1 1-.24 5.55"/><path fill="none" stroke="currentColor" stroke-linecap="round" stroke-linejoin="round" d="M17.517 14.46c.33.614.266 1.66-1.29 1.846h-9.65v8.24a1.071 1.071 0 0 0 1.563 1.1m-.239 5.55a.95.95 0 0 0-1.324 1.087v7.93h20.5"/><path fill="none" stroke="currentColor" stroke-linecap="round" stroke-linejoin="round" d="m18.806 34.453l2.552 4.44c3.068-1.814 6.202.008 6.202 3.567h5.097c0-3.559 2.838-5.214 6.216-3.559l2.553-4.45c-3.149-1.807-3.151-5.338 0-7.15l-2.553-4.437c-3.035 1.802-6.216.004-6.216-3.572H27.56c0 3.576-3.133 5.374-6.204 3.576l-2.55 4.353c3.228 1.89 3.04 5.485 0 7.232"/><circle cx="30.116" cy="30.876" r="4.168" fill="none" stroke="currentColor" stroke-linecap="round" stroke-linejoin="round"/><path fill="none" stroke="currentColor" stroke-linecap="round" stroke-linejoin="round" d="M23.072 14.508c-.468.376-.58 1.608 1.186 1.798h8.399v2.986"/></svg>