<svg xmlns="http://www.w3.org/2000/svg" width="1em" height="1em" viewBox="0 0 24 24"><g fill="none"><circle cx="8.658" cy="6.738" r="1.277" fill="currentColor" transform="rotate(-45 8.658 6.738)"/><path stroke="currentColor" stroke-linecap="round" stroke-linejoin="round" stroke-width="1.5" d="M4.668 10.5V5.748a3 3 0 0 1 3-3h5.2a2.5 2.5 0 0 1 1.768.732l6.445 6.446a4 4 0 0 1 0 5.656l-3.579 3.58a4 4 0 0 1-4.172.94"/><path fill="currentColor" fill-rule="evenodd" d="M6.5 23a5.5 5.5 0 1 0 0-11a5.5 5.5 0 0 0 0 11m0-8.993a.5.5 0 0 1 .5.5V17h2.493a.5.5 0 1 1 0 1H7v2.493a.5.5 0 1 1-1 0V18H3.507a.5.5 0 0 1 0-1H6v-2.493a.5.5 0 0 1 .5-.5" clip-rule="evenodd"/></g></svg>